<svg viewBox="0 0 375 812" xmlns="http://www.w3.org/2000/svg">
  <defs>
    <!-- 스타일 정의 -->
    <style>
      .bg-primary { fill: #2E86AB; }
      .bg-primary-light { fill: #A23B72; }
      .bg-secondary-orange { fill: #F18F01; }
      .bg-gray-50 { fill: #F8FAFC; }
      .bg-gray-100 { fill: #F1F5F9; }
      .bg-gray-200 { fill: #E2E8F0; }
      .bg-white { fill: #FFFFFF; }
      .text-gray-900 { fill: #0F172A; }
      .text-gray-700 { fill: #334155; }
      .text-gray-600 { fill: #475569; }
      .text-gray-500 { fill: #64748B; }
      .text-primary { fill: #2E86AB; }
      .text-white { fill: #FFFFFF; }
      
      .font-bold { font-weight: 700; font-family: 'Pretendard', sans-serif; }
      .font-semibold { font-weight: 600; font-family: 'Pretendard', sans-serif; }
      .font-medium { font-weight: 500; font-family: 'Pretendard', sans-serif; }
      .font-normal { font-weight: 400; font-family: 'Pretendard', sans-serif; }
      
      .text-xs { font-size: 12px; }
      .text-sm { font-size: 14px; }
      .text-base { font-size: 16px; }
      .text-lg { font-size: 18px; }
      .text-xl { font-size: 20px; }
      .text-2xl { font-size: 24px; }
      
      .card { 
        filter: drop-shadow(0 4px 6px rgba(0, 0, 0, 0.1)); 
      }
      .btn-shadow { 
        filter: drop-shadow(0 2px 4px rgba(0, 0, 0, 0.1)); 
      }
    </style>
  </defs>
  
  <!-- 배경 -->
  <rect width="100%" height="100%" class="bg-gray-50"/>
  
  <!-- 헤더 -->
  <rect width="100%" height="88" class="bg-white"/>
  <rect width="100%" height="1" y="87" class="bg-gray-200"/>
  
  <!-- 뒤로가기 버튼 -->
  <circle cx="32" cy="44" r="20" class="bg-gray-100"/>
  <path d="M28 44 L36 36 M28 44 L36 52" stroke="#475569" stroke-width="2" fill="none" stroke-linecap="round"/>
  
  <!-- 헤더 제목 -->
  <text x="187.5" y="50" text-anchor="middle" class="text-gray-900 font-bold text-lg">이동수단 설정</text>
  
  <!-- 진행 단계 표시 (3/4) -->
  <g transform="translate(24, 104)">
    <text x="0" y="20" class="text-gray-600 font-medium text-sm">3/4 단계</text>
    <!-- 프로그레스 바 -->
    <rect x="0" y="32" width="327" height="6" rx="3" class="bg-gray-200"/>
    <rect x="0" y="32" width="245" height="6" rx="3" class="bg-primary"/>
    <!-- 단계 점들 -->
    <circle cx="0" cy="35" r="4" class="bg-primary"/>
    <circle cx="109" cy="35" r="4" class="bg-primary"/>
    <circle cx="218" cy="35" r="4" class="bg-primary"/>
    <circle cx="327" cy="35" r="4" class="bg-gray-200"/>
  </g>
  
  <!-- 메인 콘텐츠 -->
  <g transform="translate(24, 168)">
    <!-- 섹션 제목 -->
    <text x="0" y="24" class="text-gray-900 font-bold text-xl">선호하는 이동수단을 선택해주세요</text>
    <text x="0" y="48" class="text-gray-600 font-normal text-sm">여행 중 주로 이용하실 이동수단을 알려주시면</text>
    <text x="0" y="68" class="text-gray-600 font-normal text-sm">더 정확한 일정을 생성해드릴게요.</text>
    
    <!-- 이동수단 카테고리 -->
    <g transform="translate(0, 96)">
      <!-- 대중교통 카드 -->
      <rect width="327" height="120" rx="12" class="bg-white card"/>
      <rect x="16" y="16" width="295" height="88" rx="8" class="bg-primary" opacity="0.1"/>
      
      <circle cx="32" cy="32" r="12" class="bg-primary"/>
      <path d="M26 32 L38 32 M32 26 L32 38" stroke="white" stroke-width="2" stroke-linecap="round"/>
      
      <text x="56" y="38" class="text-gray-900 font-semibold text-base">대중교통</text>
      <text x="56" y="58" class="text-gray-600 font-normal text-sm">버스, 지하철, 기차 등</text>
      
      <!-- 선택 체크박스 -->
      <rect x="283" y="20" width="24" height="24" rx="4" class="bg-primary"/>
      <path d="M288 32 L292 36 L300 28" stroke="white" stroke-width="2" fill="none" stroke-linecap="round"/>
      
      <!-- 세부 옵션 -->
      <g transform="translate(16, 72)">
        <rect width="60" height="24" rx="12" class="bg-primary"/>
        <text x="30" y="17" text-anchor="middle" class="text-white font-medium text-xs">버스</text>
        
        <rect x="68" y="0" width="60" height="24" rx="12" class="bg-primary"/>
        <text x="98" y="17" text-anchor="middle" class="text-white font-medium text-xs">지하철</text>
        
        <rect x="136" y="0" width="60" height="24" rx="12" class="bg-gray-200"/>
        <text x="166" y="17" text-anchor="middle" class="text-gray-600 font-medium text-xs">기차</text>
        
        <rect x="204" y="0" width="60" height="24" rx="12" class="bg-gray-200"/>
        <text x="234" y="17" text-anchor="middle" class="text-gray-600 font-medium text-xs">택시</text>
      </g>
    </g>
    
    <!-- 자가용 카드 -->
    <g transform="translate(0, 232)">
      <rect width="327" height="96" rx="12" class="bg-white card"/>
      
      <circle cx="32" cy="32" r="12" class="bg-gray-300"/>
      <path d="M24 32 C24 24 32 16 32 16 S40 24 40 32 C40 36 36 40 32 40 S24 36 24 32 Z" class="text-gray-600"/>
      
      <text x="56" y="38" class="text-gray-900 font-semibold text-base">자가용</text>
      <text x="56" y="58" class="text-gray-600 font-normal text-sm">개인 차량 이용</text>
      
      <!-- 선택되지 않은 체크박스 -->
      <rect x="283" y="20" width="24" height="24" rx="4" class="bg-gray-200"/>
    </g>
    
    <!-- 혼합 카드 -->
    <g transform="translate(0, 344)">
      <rect width="327" height="96" rx="12" class="bg-white card"/>
      
      <circle cx="32" cy="32" r="12" class="bg-gray-300"/>
      <text x="32" y="38" text-anchor="middle" class="text-gray-600 font-bold text-xs">MIX</text>
      
      <text x="56" y="38" class="text-gray-900 font-semibold text-base">혼합</text>
      <text x="56" y="58" class="text-gray-600 font-normal text-sm">상황에 따라 다양하게</text>
      
      <!-- 선택되지 않은 체크박스 -->
      <rect x="283" y="20" width="24" height="24" rx="4" class="bg-gray-200"/>
    </g>
    
    <!-- 지역별 선호도 설정 -->
    <g transform="translate(0, 472)">
      <text x="0" y="24" class="text-gray-900 font-semibold text-base">지역별 세부 설정</text>
      
      <!-- 국내 설정 -->
      <rect x="0" y="40" width="327" height="64" rx="12" class="bg-white card"/>
      <text x="16" y="64" class="text-gray-900 font-medium text-sm">국내 여행</text>
      <text x="16" y="84" class="text-gray-600 font-normal text-xs">서울, 부산, 제주도 등</text>
      
      <!-- 토글 스위치 (ON) -->
      <rect x="271" y="56" width="40" height="24" rx="12" class="bg-primary"/>
      <circle cx="299" cy="68" r="10" class="bg-white"/>
      
      <!-- 해외 설정 -->
      <rect x="0" y="120" width="327" height="64" rx="12" class="bg-white card"/>
      <text x="16" y="144" class="text-gray-900 font-medium text-sm">해외 여행</text>
      <text x="16" y="164" class="text-gray-600 font-normal text-xs">일본, 동남아, 유럽 등</text>
      
      <!-- 토글 스위치 (OFF) -->
      <rect x="271" y="136" width="40" height="24" rx="12" class="bg-gray-300"/>
      <circle cx="283" cy="148" r="10" class="bg-white"/>
    </g>
  </g>
  
  <!-- 하단 버튼 영역 -->
  <rect x="0" y="712" width="375" height="100" class="bg-white"/>
  <rect x="0" y="712" width="375" height="1" class="bg-gray-200"/>
  
  <!-- 다음 단계 버튼 -->
  <rect x="24" y="740" width="327" height="48" rx="8" class="bg-primary btn-shadow"/>
  <text x="187.5" y="769" text-anchor="middle" class="text-white font-semibold text-base">다음 단계</text>
</svg>