<?xml version="1.0" encoding="UTF-8"?>
<svg width="1200" height="1400" viewBox="0 0 1200 1400" xmlns="http://www.w3.org/2000/svg">
  <!-- CSS for responsive layout -->
  <style>
    .header-bar { fill: #2563eb; }
    .back-btn { fill: #ffffff; stroke: #ffffff; stroke-width: 2; }
    .add-btn { fill: #10b981; stroke: #ffffff; stroke-width: 2; }
    .card-bg { fill: #ffffff; stroke: #e5e7eb; stroke-width: 1; }
    .primary-text { font-family: Arial, sans-serif; font-size: 16px; fill: #111827; font-weight: bold; }
    .secondary-text { font-family: Arial, sans-serif; font-size: 14px; fill: #6b7280; }
    .small-text { font-family: Arial, sans-serif; font-size: 12px; fill: #9ca3af; }
    .status-good { fill: #10b981; }
    .status-caution { fill: #f59e0b; }
    .status-limited { fill: #ef4444; }
    .tag-culture { fill: #8b5cf6; }
    .tag-nature { fill: #10b981; }
    .tag-activity { fill: #f59e0b; }
    .tag-food { fill: #ef4444; }
    .tag-shopping { fill: #3b82f6; }
    .icon-edit { fill: #6b7280; }
    .icon-delete { fill: #ef4444; }
    .shadow { filter: drop-shadow(0 4px 6px rgba(0, 0, 0, 0.1)); }
  </style>
  
  <!-- Mobile Viewport (0-600px) -->
  <g id="mobile-layout" transform="translate(20, 0)">
    <!-- Header -->
    <rect class="header-bar" x="0" y="0" width="360" height="60" rx="0"/>
    <circle class="back-btn" cx="30" cy="30" r="12"/>
    <path class="back-btn" d="M25 30 L35 25 L35 35 Z" fill="none"/>
    <text class="primary-text" x="60" y="38" fill="white">여행 멤버 관리</text>
    <circle class="add-btn" cx="330" cy="30" r="18"/>
    <text class="add-btn" x="324" y="37" fill="white" font-size="20" font-weight="bold">+</text>
    
    <!-- Trip Info Card -->
    <rect class="card-bg shadow" x="0" y="80" width="360" height="80" rx="8"/>
    <text class="primary-text" x="16" y="105">제주도 가족 여행</text>
    <text class="secondary-text" x="16" y="125">2024.08.15 - 2024.08.18 (4일)</text>
    <text class="small-text" x="16" y="145">총 4명의 멤버</text>
    
    <!-- Member Summary -->
    <rect class="card-bg shadow" x="0" y="180" width="360" height="100" rx="8"/>
    <text class="primary-text" x="16" y="205">멤버 요약</text>
    <g transform="translate(16, 220)">
      <circle class="status-good" cx="12" cy="12" r="6"/>
      <text class="small-text" x="25" y="17">양호 2명</text>
      <circle class="status-caution" cx="92" cy="12" r="6"/>
      <text class="small-text" x="105" y="17">주의 1명</text>
      <circle class="status-limited" cx="172" cy="12" r="6"/>
      <text class="small-text" x="185" y="17">제한 1명</text>
    </g>
    <g transform="translate(16, 250)">
      <rect class="tag-culture" x="0" y="0" width="50" height="20" rx="10"/>
      <text class="small-text" x="8" y="13" fill="white">문화 3</text>
      <rect class="tag-nature" x="60" y="0" width="50" height="20" rx="10"/>
      <text class="small-text" x="68" y="13" fill="white">자연 4</text>
      <rect class="tag-food" x="120" y="0" width="50" height="20" rx="10"/>
      <text class="small-text" x="128" y="13" fill="white">음식 2</text>
    </g>
    
    <!-- Member List -->
    <!-- Member 1 -->
    <rect class="card-bg shadow" x="0" y="300" width="360" height="120" rx="8"/>
    <circle fill="#3b82f6" cx="30" cy="340" r="20"/>
    <text fill="white" x="24" y="346" font-size="14" font-weight="bold">김</text>
    <text class="primary-text" x="60" y="330">김철수 (45세)</text>
    <g transform="translate(60, 340)">
      <circle class="status-good" cx="6" cy="6" r="4"/>
      <text class="small-text" x="16" y="10">건강상태: 양호</text>
    </g>
    <g transform="translate(60, 360)">
      <rect class="tag-culture" x="0" y="0" width="35" height="16" rx="8"/>
      <text class="small-text" x="5" y="11" fill="white" font-size="10">문화</text>
      <rect class="tag-nature" x="40" y="0" width="35" height="16" rx="8"/>
      <text class="small-text" x="45" y="11" fill="white" font-size="10">자연</text>
      <rect class="tag-food" x="80" y="0" width="35" height="16" rx="8"/>
      <text class="small-text" x="85" y="11" fill="white" font-size="10">음식</text>
    </g>
    <!-- Action buttons -->
    <circle class="icon-edit" cx="300" cy="340" r="12" fill="none" stroke="#6b7280" stroke-width="1"/>
    <path class="icon-edit" d="M295 335 L305 335 L305 345 L295 345 Z" fill="none"/>
    <circle class="icon-delete" cx="330" cy="340" r="12" fill="none" stroke="#ef4444" stroke-width="1"/>
    <path class="icon-delete" d="M325 335 L335 345 M335 335 L325 345"/>
    
    <!-- Member 2 -->
    <rect class="card-bg shadow" x="0" y="440" width="360" height="120" rx="8"/>
    <circle fill="#ef4444" cx="30" cy="480" r="20"/>
    <text fill="white" x="24" y="486" font-size="14" font-weight="bold">이</text>
    <text class="primary-text" x="60" y="470">이영희 (42세)</text>
    <g transform="translate(60, 480)">
      <circle class="status-caution" cx="6" cy="6" r="4"/>
      <text class="small-text" x="16" y="10">건강상태: 주의필요</text>
    </g>
    <g transform="translate(60, 500)">
      <rect class="tag-culture" x="0" y="0" width="35" height="16" rx="8"/>
      <text class="small-text" x="5" y="11" fill="white" font-size="10">문화</text>
      <rect class="tag-shopping" x="40" y="0" width="40" height="16" rx="8"/>
      <text class="small-text" x="45" y="11" fill="white" font-size="10">쇼핑</text>
    </g>
    <!-- Action buttons -->
    <circle class="icon-edit" cx="300" cy="480" r="12" fill="none" stroke="#6b7280" stroke-width="1"/>
    <path class="icon-edit" d="M295 475 L305 475 L305 485 L295 485 Z" fill="none"/>
    <circle class="icon-delete" cx="330" cy="480" r="12" fill="none" stroke="#ef4444" stroke-width="1"/>
    <path class="icon-delete" d="M325 475 L335 485 M335 475 L325 485"/>
    
    <!-- Member 3 -->
    <rect class="card-bg shadow" x="0" y="580" width="360" height="120" rx="8"/>
    <circle fill="#10b981" cx="30" cy="620" r="20"/>
    <text fill="white" x="21" y="626" font-size="14" font-weight="bold">박</text>
    <text class="primary-text" x="60" y="610">박민수 (16세)</text>
    <g transform="translate(60, 620)">
      <circle class="status-good" cx="6" cy="6" r="4"/>
      <text class="small-text" x="16" y="10">건강상태: 양호</text>
    </g>
    <g transform="translate(60, 640)">
      <rect class="tag-activity" x="0" y="0" width="50" height="16" rx="8"/>
      <text class="small-text" x="5" y="11" fill="white" font-size="10">액티비티</text>
      <rect class="tag-nature" x="55" y="0" width="35" height="16" rx="8"/>
      <text class="small-text" x="60" y="11" fill="white" font-size="10">자연</text>
    </g>
    <!-- Action buttons -->
    <circle class="icon-edit" cx="300" cy="620" r="12" fill="none" stroke="#6b7280" stroke-width="1"/>
    <path class="icon-edit" d="M295 615 L305 615 L305 625 L295 625 Z" fill="none"/>
    <circle class="icon-delete" cx="330" cy="620" r="12" fill="none" stroke="#ef4444" stroke-width="1"/>
    <path class="icon-delete" d="M325 615 L335 625 M335 615 L325 625"/>
    
    <!-- Member 4 -->
    <rect class="card-bg shadow" x="0" y="720" width="360" height="120" rx="8"/>
    <circle fill="#f59e0b" cx="30" cy="760" r="20"/>
    <text fill="white" x="21" y="766" font-size="14" font-weight="bold">김</text>
    <text class="primary-text" x="60" y="750">김지민 (12세)</text>
    <g transform="translate(60, 760)">
      <circle class="status-limited" cx="6" cy="6" r="4"/>
      <text class="small-text" x="16" y="10">건강상태: 제한있음</text>
    </g>
    <g transform="translate(60, 780)">
      <rect class="tag-culture" x="0" y="0" width="35" height="16" rx="8"/>
      <text class="small-text" x="5" y="11" fill="white" font-size="10">문화</text>
      <rect class="tag-nature" x="40" y="0" width="35" height="16" rx="8"/>
      <text class="small-text" x="45" y="11" fill="white" font-size="10">자연</text>
      <rect class="tag-food" x="80" y="0" width="35" height="16" rx="8"/>
      <text class="small-text" x="85" y="11" fill="white" font-size="10">음식</text>
    </g>
    <!-- Action buttons -->
    <circle class="icon-edit" cx="300" cy="760" r="12" fill="none" stroke="#6b7280" stroke-width="1"/>
    <path class="icon-edit" d="M295 755 L305 755 L305 765 L295 765 Z" fill="none"/>
    <circle class="icon-delete" cx="330" cy="760" r="12" fill="none" stroke="#ef4444" stroke-width="1"/>
    <path class="icon-delete" d="M325 755 L335 765 M335 755 L325 765"/>
  </g>
  
  <!-- Desktop Viewport (600px+) -->
  <g id="desktop-layout" transform="translate(450, 0)">
    <!-- Header -->
    <rect class="header-bar" x="0" y="0" width="720" height="80" rx="0"/>
    <circle class="back-btn" cx="40" cy="40" r="16"/>
    <path class="back-btn" d="M32 40 L48 32 L48 48 Z" fill="none"/>
    <text class="primary-text" x="80" y="50" fill="white" font-size="20">여행 멤버 관리</text>
    <rect class="add-btn" x="600" y="20" width="100" height="40" rx="20"/>
    <text class="add-btn" x="635" y="44" fill="white" font-size="14" font-weight="bold">+ 멤버 추가</text>
    
    <!-- Trip Info Section -->
    <rect class="card-bg shadow" x="0" y="100" width="720" height="100" rx="12"/>
    <text class="primary-text" x="24" y="130" font-size="18">제주도 가족 여행</text>
    <text class="secondary-text" x="24" y="155">2024년 8월 15일 - 8월 18일 (4일간)</text>
    <text class="small-text" x="24" y="180">총 4명의 멤버가 함께 여행합니다</text>
    
    <!-- Summary Stats -->
    <g transform="translate(450, 120)">
      <rect class="card-bg" x="0" y="0" width="240" height="60" rx="8" fill="#f9fafb"/>
      <text class="primary-text" x="12" y="20" font-size="14">멤버 요약 정보</text>
      <g transform="translate(12, 30)">
        <circle class="status-good" cx="8" cy="8" r="4"/>
        <text class="small-text" x="18" y="12">양호 2명</text>
        <circle class="status-caution" cx="78" cy="8" r="4"/>
        <text class="small-text" x="88" y="12">주의 1명</text>
        <circle class="status-limited" cx="148" cy="8" r="4"/>
        <text class="small-text" x="158" y="12">제한 1명</text>
      </g>
    </g>
    
    <!-- Member Grid (2 columns) -->
    <!-- Row 1 -->
    <!-- Member 1 -->
    <rect class="card-bg shadow" x="0" y="220" width="350" height="160" rx="12"/>
    <circle fill="#3b82f6" cx="40" cy="270" r="24"/>
    <text fill="white" x="32" y="278" font-size="16" font-weight="bold">김</text>
    <text class="primary-text" x="80" y="255" font-size="16">김철수 (45세)</text>
    <g transform="translate(80, 270)">
      <circle class="status-good" cx="6" cy="6" r="5"/>
      <text class="secondary-text" x="18" y="11">건강상태: 양호</text>
    </g>
    <text class="small-text" x="80" y="290">선호사항:</text>
    <g transform="translate(80, 300)">
      <rect class="tag-culture" x="0" y="0" width="40" height="20" rx="10"/>
      <text class="small-text" x="8" y="13" fill="white">문화</text>
      <rect class="tag-nature" x="48" y="0" width="40" height="20" rx="10"/>
      <text class="small-text" x="56" y="13" fill="white">자연</text>
      <rect class="tag-food" x="96" y="0" width="40" height="20" rx="10"/>
      <text class="small-text" x="104" y="13" fill="white">음식</text>
    </g>
    <!-- Action buttons -->
    <g transform="translate(290, 340)">
      <rect class="icon-edit" x="0" y="0" width="24" height="24" rx="4" fill="#f3f4f6" stroke="#6b7280"/>
      <text class="icon-edit" x="7" y="16" font-size="10">편집</text>
      <rect class="icon-delete" x="30" y="0" width="24" height="24" rx="4" fill="#fef2f2" stroke="#ef4444"/>
      <text class="icon-delete" x="37" y="16" font-size="10">삭제</text>
    </g>
    
    <!-- Member 2 -->
    <rect class="card-bg shadow" x="370" y="220" width="350" height="160" rx="12"/>
    <circle fill="#ef4444" cx="410" cy="270" r="24"/>
    <text fill="white" x="402" y="278" font-size="16" font-weight="bold">이</text>
    <text class="primary-text" x="450" y="255" font-size="16">이영희 (42세)</text>
    <g transform="translate(450, 270)">
      <circle class="status-caution" cx="6" cy="6" r="5"/>
      <text class="secondary-text" x="18" y="11">건강상태: 주의필요</text>
    </g>
    <text class="small-text" x="450" y="290">선호사항:</text>
    <g transform="translate(450, 300)">
      <rect class="tag-culture" x="0" y="0" width="40" height="20" rx="10"/>
      <text class="small-text" x="8" y="13" fill="white">문화</text>
      <rect class="tag-shopping" x="48" y="0" width="50" height="20" rx="10"/>
      <text class="small-text" x="56" y="13" fill="white">쇼핑</text>
    </g>
    <!-- Action buttons -->
    <g transform="translate(660, 340)">
      <rect class="icon-edit" x="0" y="0" width="24" height="24" rx="4" fill="#f3f4f6" stroke="#6b7280"/>
      <text class="icon-edit" x="7" y="16" font-size="10">편집</text>
      <rect class="icon-delete" x="30" y="0" width="24" height="24" rx="4" fill="#fef2f2" stroke="#ef4444"/>
      <text class="icon-delete" x="37" y="16" font-size="10">삭제</text>
    </g>
    
    <!-- Row 2 -->
    <!-- Member 3 -->
    <rect class="card-bg shadow" x="0" y="400" width="350" height="160" rx="12"/>
    <circle fill="#10b981" cx="40" cy="450" r="24"/>
    <text fill="white" x="32" y="458" font-size="16" font-weight="bold">박</text>
    <text class="primary-text" x="80" y="435" font-size="16">박민수 (16세)</text>
    <g transform="translate(80, 450)">
      <circle class="status-good" cx="6" cy="6" r="5"/>
      <text class="secondary-text" x="18" y="11">건강상태: 양호</text>
    </g>
    <text class="small-text" x="80" y="470">선호사항:</text>
    <g transform="translate(80, 480)">
      <rect class="tag-activity" x="0" y="0" width="60" height="20" rx="10"/>
      <text class="small-text" x="8" y="13" fill="white">액티비티</text>
      <rect class="tag-nature" x="68" y="0" width="40" height="20" rx="10"/>
      <text class="small-text" x="76" y="13" fill="white">자연</text>
    </g>
    <!-- Action buttons -->
    <g transform="translate(290, 520)">
      <rect class="icon-edit" x="0" y="0" width="24" height="24" rx="4" fill="#f3f4f6" stroke="#6b7280"/>
      <text class="icon-edit" x="7" y="16" font-size="10">편집</text>
      <rect class="icon-delete" x="30" y="0" width="24" height="24" rx="4" fill="#fef2f2" stroke="#ef4444"/>
      <text class="icon-delete" x="37" y="16" font-size="10">삭제</text>
    </g>
    
    <!-- Member 4 -->
    <rect class="card-bg shadow" x="370" y="400" width="350" height="160" rx="12"/>
    <circle fill="#f59e0b" cx="410" cy="450" r="24"/>
    <text fill="white" x="402" y="458" font-size="16" font-weight="bold">김</text>
    <text class="primary-text" x="450" y="435" font-size="16">김지민 (12세)</text>
    <g transform="translate(450, 450)">
      <circle class="status-limited" cx="6" cy="6" r="5"/>
      <text class="secondary-text" x="18" y="11">건강상태: 제한있음</text>
    </g>
    <text class="small-text" x="450" y="470">선호사항:</text>
    <g transform="translate(450, 480)">
      <rect class="tag-culture" x="0" y="0" width="40" height="20" rx="10"/>
      <text class="small-text" x="8" y="13" fill="white">문화</text>
      <rect class="tag-nature" x="48" y="0" width="40" height="20" rx="10"/>
      <text class="small-text" x="56" y="13" fill="white">자연</text>
      <rect class="tag-food" x="96" y="0" width="40" height="20" rx="10"/>
      <text class="small-text" x="104" y="13" fill="white">음식</text>
    </g>
    <!-- Action buttons -->
    <g transform="translate(660, 520)">
      <rect class="icon-edit" x="0" y="0" width="24" height="24" rx="4" fill="#f3f4f6" stroke="#6b7280"/>
      <text class="icon-edit" x="7" y="16" font-size="10">편집</text>
      <rect class="icon-delete" x="30" y="0" width="24" height="24" rx="4" fill="#fef2f2" stroke="#ef4444"/>
      <text class="icon-delete" x="37" y="16" font-size="10">삭제</text>
    </g>
    
    <!-- Additional Info Panel -->
    <rect class="card-bg shadow" x="0" y="580" width="720" height="100" rx="12"/>
    <text class="primary-text" x="24" y="610" font-size="16">멤버 관리 가이드</text>
    <text class="secondary-text" x="24" y="635">• 멤버별 건강상태와 선호사항을 정확히 입력하면 더 맞춤형 일정을 생성할 수 있습니다</text>
    <text class="secondary-text" x="24" y="655">• 나이 정보는 일정 강도와 휴식 시간 배치에 활용됩니다</text>
    <text class="secondary-text" x="24" y="675">• 멤버 정보는 언제든지 수정할 수 있습니다</text>
  </g>
  
  <!-- Legend -->
  <g transform="translate(50, 1300)">
    <rect fill="#f9fafb" x="0" y="0" width="1100" height="80" rx="8"/>
    <text class="primary-text" x="20" y="25">범례 (Legend)</text>
    <g transform="translate(20, 35)">
      <text class="small-text" x="0" y="15">건강상태:</text>
      <circle class="status-good" cx="60" cy="11" r="4"/>
      <text class="small-text" x="70" y="15">양호</text>
      <circle class="status-caution" cx="110" cy="11" r="4"/>
      <text class="small-text" x="120" y="15">주의필요</text>
      <circle class="status-limited" cx="180" cy="11" r="4"/>
      <text class="small-text" x="190" y="15">제한있음</text>
      
      <text class="small-text" x="270" y="15">선호사항:</text>
      <rect class="tag-culture" x="320" y="5" width="30" height="12" rx="6"/>
      <text class="small-text" x="325" y="13" fill="white" font-size="8">문화</text>
      <rect class="tag-nature" x="355" y="5" width="30" height="12" rx="6"/>
      <text class="small-text" x="360" y="13" fill="white" font-size="8">자연</text>
      <rect class="tag-activity" x="390" y="5" width="45" height="12" rx="6"/>
      <text class="small-text" x="395" y="13" fill="white" font-size="8">액티비티</text>
      <rect class="tag-food" x="440" y="5" width="30" height="12" rx="6"/>
      <text class="small-text" x="445" y="13" fill="white" font-size="8">음식</text>
      <rect class="tag-shopping" x="475" y="5" width="35" height="12" rx="6"/>
      <text class="small-text" x="480" y="13" fill="white" font-size="8">쇼핑</text>
    </g>
  </g>
  
  <!-- Responsive Media Queries with CSS (conceptual, as SVG has limited CSS support) -->
  <style>
    @media (max-width: 600px) {
      #desktop-layout { display: none; }
      #mobile-layout { display: block; }
    }
    @media (min-width: 601px) {
      #mobile-layout { display: none; }
      #desktop-layout { display: block; }
    }
  </style>
</svg>