<?xml version="1.0" encoding="UTF-8"?>
<svg width="1500" height="1700" viewBox="0 0 1500 1700" xmlns="http://www.w3.org/2000/svg">
  <defs>
    <!-- Gradients for visual appeal -->
    <linearGradient id="screenGradient" x1="0%" y1="0%" x2="100%" y2="100%">
      <stop offset="0%" style="stop-color:#4A90E2;stop-opacity:1" />
      <stop offset="100%" style="stop-color:#7B68EE;stop-opacity:1" />
    </linearGradient>
    
    <linearGradient id="processGradient" x1="0%" y1="0%" x2="100%" y2="100%">
      <stop offset="0%" style="stop-color:#50C878;stop-opacity:1" />
      <stop offset="100%" style="stop-color:#32CD32;stop-opacity:1" />
    </linearGradient>
    
    <linearGradient id="decisionGradient" x1="0%" y1="0%" x2="100%" y2="100%">
      <stop offset="0%" style="stop-color:#FF6B6B;stop-opacity:1" />
      <stop offset="100%" style="stop-color:#FF4757;stop-opacity:1" />
    </linearGradient>
    
    <!-- Arrow marker -->
    <marker id="arrowhead" markerWidth="10" markerHeight="7" refX="9" refY="3.5" orient="auto">
      <polygon points="0 0, 10 3.5, 0 7" fill="#333" />
    </marker>
  </defs>
  
  <!-- Title -->
  <text x="750" y="30" font-family="Arial, sans-serif" font-size="24" font-weight="bold" text-anchor="middle" fill="#2C3E50">
    여행 앱 사용자 플로우 다이어그램
  </text>
  
  <!-- Legend -->
  <rect x="20" y="50" width="300" height="120" fill="#F8F9FA" stroke="#E9ECEF" stroke-width="1" rx="5"/>
  <text x="30" y="75" font-family="Arial, sans-serif" font-size="14" font-weight="bold" fill="#2C3E50">범례</text>
  
  <rect x="30" y="85" width="40" height="20" fill="url(#screenGradient)" rx="5"/>
  <text x="80" y="98" font-family="Arial, sans-serif" font-size="12" fill="#2C3E50">화면/인터페이스</text>
  
  <rect x="30" y="110" width="40" height="20" fill="url(#processGradient)" rx="5"/>
  <text x="80" y="123" font-family="Arial, sans-serif" font-size="12" fill="#2C3E50">시스템 프로세스</text>
  
  <polygon points="200,95 220,105 200,115 180,105" fill="url(#decisionGradient)"/>
  <text x="230" y="108" font-family="Arial, sans-serif" font-size="12" fill="#2C3E50">의사결정</text>
  
  <rect x="30" y="135" width="40" height="20" fill="#FFF3CD" stroke="#FFEAA7" rx="5"/>
  <text x="80" y="148" font-family="Arial, sans-serif" font-size="12" fill="#2C3E50">선택적 프로세스</text>
  
  <!-- Start -->
  <ellipse cx="750" cy="200" rx="60" ry="25" fill="#2ECC71" stroke="#27AE60" stroke-width="2"/>
  <text x="750" y="208" font-family="Arial, sans-serif" font-size="14" font-weight="bold" text-anchor="middle" fill="white">시작</text>
  
  <!-- User Registration/Login Decision -->
  <polygon points="750,270 800,300 750,330 700,300" fill="url(#decisionGradient)" stroke="#E74C3C" stroke-width="2"/>
  <text x="750" y="295" font-family="Arial, sans-serif" font-size="12" text-anchor="middle" fill="white">회원인가?</text>
  <text x="750" y="308" font-family="Arial, sans-serif" font-size="12" text-anchor="middle" fill="white">(로그인)</text>
  
  <!-- Registration Flow (Left Path) -->
  <rect x="500" y="275" width="120" height="50" fill="url(#screenGradient)" stroke="#3498DB" stroke-width="2" rx="8"/>
  <text x="560" y="295" font-family="Arial, sans-serif" font-size="12" text-anchor="middle" fill="white">회원가입</text>
  <text x="560" y="308" font-family="Arial, sans-serif" font-size="12" text-anchor="middle" fill="white">화면</text>
  
  <!-- Login Flow (Right Path) -->
  <rect x="880" y="275" width="120" height="50" fill="url(#screenGradient)" stroke="#3498DB" stroke-width="2" rx="8"/>
  <text x="940" y="295" font-family="Arial, sans-serif" font-size="12" text-anchor="middle" fill="white">로그인</text>
  <text x="940" y="308" font-family="Arial, sans-serif" font-size="12" text-anchor="middle" fill="white">화면</text>
  
  <!-- Main Dashboard -->
  <rect x="680" y="380" width="140" height="50" fill="url(#screenGradient)" stroke="#3498DB" stroke-width="2" rx="8"/>
  <text x="750" y="400" font-family="Arial, sans-serif" font-size="12" text-anchor="middle" fill="white">메인 대시보드</text>
  <text x="750" y="413" font-family="Arial, sans-serif" font-size="12" text-anchor="middle" fill="white">(여행 목록)</text>
  
  <!-- Main Action Decision -->
  <polygon points="750,480 800,510 750,540 700,510" fill="url(#decisionGradient)" stroke="#E74C3C" stroke-width="2"/>
  <text x="750" y="505" font-family="Arial, sans-serif" font-size="12" text-anchor="middle" fill="white">주요 액션</text>
  <text x="750" y="518" font-family="Arial, sans-serif" font-size="12" text-anchor="middle" fill="white">선택</text>
  
  <!-- New Travel Creation Path (Left) -->
  <rect x="450" y="570" width="140" height="50" fill="url(#screenGradient)" stroke="#3498DB" stroke-width="2" rx="8"/>
  <text x="520" y="590" font-family="Arial, sans-serif" font-size="12" text-anchor="middle" fill="white">새 여행 생성</text>
  <text x="520" y="603" font-family="Arial, sans-serif" font-size="12" text-anchor="middle" fill="white">(1단계: 기본정보)</text>
  
  <!-- Existing Travel Path (Center) -->
  <rect x="680" y="570" width="140" height="50" fill="url(#screenGradient)" stroke="#3498DB" stroke-width="2" rx="8"/>
  <text x="750" y="590" font-family="Arial, sans-serif" font-size="12" text-anchor="middle" fill="white">기존 여행</text>
  <text x="750" y="603" font-family="Arial, sans-serif" font-size="12" text-anchor="middle" fill="white">선택</text>
  
  <!-- Location Search Path (Right) - NEW -->
  <rect x="910" y="570" width="140" height="50" fill="url(#screenGradient)" stroke="#3498DB" stroke-width="2" rx="8"/>
  <text x="980" y="590" font-family="Arial, sans-serif" font-size="12" text-anchor="middle" fill="white">특정 장소 찾기</text>
  <text x="980" y="603" font-family="Arial, sans-serif" font-size="12" text-anchor="middle" fill="white">(독립 검색)</text>
  
  <!-- Travel Setup Steps -->
  <rect x="450" y="650" width="140" height="50" fill="url(#screenGradient)" stroke="#3498DB" stroke-width="2" rx="8"/>
  <text x="520" y="670" font-family="Arial, sans-serif" font-size="12" text-anchor="middle" fill="white">2단계: 이동수단</text>
  <text x="520" y="683" font-family="Arial, sans-serif" font-size="12" text-anchor="middle" fill="white">(대중교통/자가용)</text>
  
  <rect x="450" y="730" width="140" height="50" fill="url(#screenGradient)" stroke="#3498DB" stroke-width="2" rx="8"/>
  <text x="520" y="750" font-family="Arial, sans-serif" font-size="12" text-anchor="middle" fill="white">3단계: 멤버 추가</text>
  <text x="520" y="763" font-family="Arial, sans-serif" font-size="12" text-anchor="middle" fill="white">(이름/나이/건강/선호)</text>
  
  <!-- Travel Detail Screen -->
  <rect x="680" y="730" width="140" height="50" fill="url(#screenGradient)" stroke="#3498DB" stroke-width="2" rx="8"/>
  <text x="750" y="750" font-family="Arial, sans-serif" font-size="12" text-anchor="middle" fill="white">여행 상세 화면</text>
  <text x="750" y="763" font-family="Arial, sans-serif" font-size="12" text-anchor="middle" fill="white">(일정 관리)</text>
  
  <!-- Location Search Detailed Flow - NEW SECTION -->
  <rect x="1150" y="570" width="120" height="50" fill="url(#screenGradient)" stroke="#3498DB" stroke-width="2" rx="8"/>
  <text x="1210" y="590" font-family="Arial, sans-serif" font-size="12" text-anchor="middle" fill="white">장소 검색 화면</text>
  <text x="1210" y="603" font-family="Arial, sans-serif" font-size="12" text-anchor="middle" fill="white">(키워드/카테고리)</text>
  
  <!-- Location Search Type Decision - NEW -->
  <polygon points="1210,670 1260,700 1210,730 1160,700" fill="url(#decisionGradient)" stroke="#E74C3C" stroke-width="2"/>
  <text x="1210" y="695" font-family="Arial, sans-serif" font-size="12" text-anchor="middle" fill="white">검색 유형</text>
  <text x="1210" y="708" font-family="Arial, sans-serif" font-size="12" text-anchor="middle" fill="white">선택</text>
  
  <!-- Keyword Search - NEW -->
  <rect x="1050" y="760" width="120" height="50" fill="url(#screenGradient)" stroke="#3498DB" stroke-width="2" rx="8"/>
  <text x="1110" y="780" font-family="Arial, sans-serif" font-size="12" text-anchor="middle" fill="white">키워드 검색</text>
  <text x="1110" y="793" font-family="Arial, sans-serif" font-size="12" text-anchor="middle" fill="white">(음성 검색 포함)</text>
  
  <!-- Category Search - NEW -->
  <rect x="1280" y="760" width="120" height="50" fill="url(#screenGradient)" stroke="#3498DB" stroke-width="2" rx="8"/>
  <text x="1340" y="780" font-family="Arial, sans-serif" font-size="12" text-anchor="middle" fill="white">카테고리 검색</text>
  <text x="1340" y="793" font-family="Arial, sans-serif" font-size="12" text-anchor="middle" fill="white">(음식점/카페/관광지)</text>
  
  <!-- Location Type Detection - NEW -->
  <rect x="1150" y="840" width="120" height="50" fill="url(#processGradient)" stroke="#27AE60" stroke-width="2" rx="8"/>
  <text x="1210" y="860" font-family="Arial, sans-serif" font-size="12" text-anchor="middle" fill="white">지역 특성 파악</text>
  <text x="1210" y="873" font-family="Arial, sans-serif" font-size="12" text-anchor="middle" fill="white">(도시/시골/산간)</text>
  
  <!-- MCP Location Verification - NEW -->
  <rect x="1150" y="920" width="120" height="50" fill="url(#processGradient)" stroke="#27AE60" stroke-width="2" rx="8"/>
  <text x="1210" y="940" font-family="Arial, sans-serif" font-size="12" text-anchor="middle" fill="white">MCP 위치 검증</text>
  <text x="1210" y="953" font-family="Arial, sans-serif" font-size="12" text-anchor="middle" fill="white">(국내: 카카오/해외: 구글)</text>
  
  <!-- Travel Time Calculation - NEW -->
  <rect x="1150" y="1000" width="120" height="50" fill="url(#processGradient)" stroke="#27AE60" stroke-width="2" rx="8"/>
  <text x="1210" y="1020" font-family="Arial, sans-serif" font-size="12" text-anchor="middle" fill="white">이동 시간 계산</text>
  <text x="1210" y="1033" font-family="Arial, sans-serif" font-size="12" text-anchor="middle" fill="white">(60분/20분 이내)</text>
  
  <!-- Location Results - NEW -->
  <rect x="1150" y="1080" width="120" height="50" fill="url(#screenGradient)" stroke="#3498DB" stroke-width="2" rx="8"/>
  <text x="1210" y="1100" font-family="Arial, sans-serif" font-size="12" text-anchor="middle" fill="white">검색 결과 목록</text>
  <text x="1210" y="1113" font-family="Arial, sans-serif" font-size="12" text-anchor="middle" fill="white">(거리순 정렬)</text>
  
  <!-- Location Detail Decision - NEW -->
  <polygon points="1210,1160 1260,1190 1210,1220 1160,1190" fill="url(#decisionGradient)" stroke="#E74C3C" stroke-width="2"/>
  <text x="1210" y="1185" font-family="Arial, sans-serif" font-size="12" text-anchor="middle" fill="white">상세정보</text>
  <text x="1210" y="1198" font-family="Arial, sans-serif" font-size="12" text-anchor="middle" fill="white">확인?</text>
  
  <!-- Location Details View - NEW -->
  <rect x="1280" y="1250" width="120" height="50" fill="url(#screenGradient)" stroke="#3498DB" stroke-width="2" rx="8"/>
  <text x="1340" y="1270" font-family="Arial, sans-serif" font-size="12" text-anchor="middle" fill="white">장소 상세정보</text>
  <text x="1340" y="1283" font-family="Arial, sans-serif" font-size="12" text-anchor="middle" fill="white">(주소/평점/추천사유)</text>
  
  <!-- Add to Itinerary Decision - NEW -->
  <polygon points="1340,1320 1390,1350 1340,1380 1290,1350" fill="url(#decisionGradient)" stroke="#E74C3C" stroke-width="2"/>
  <text x="1340" y="1345" font-family="Arial, sans-serif" font-size="12" text-anchor="middle" fill="white">일정에</text>
  <text x="1340" y="1358" font-family="Arial, sans-serif" font-size="12" text-anchor="middle" fill="white">추가?</text>
  
  <!-- Main Flow Components -->
  <!-- AI Schedule Generation -->
  <rect x="450" y="820" width="140" height="50" fill="url(#processGradient)" stroke="#27AE60" stroke-width="2" rx="8"/>
  <text x="520" y="840" font-family="Arial, sans-serif" font-size="12" text-anchor="middle" fill="white">AI 일정 자동생성</text>
  <text x="520" y="853" font-family="Arial, sans-serif" font-size="12" text-anchor="middle" fill="white">(멤버 특성 반영)</text>
  
  <!-- Schedule Editing -->
  <rect x="680" y="820" width="140" height="50" fill="url(#screenGradient)" stroke="#3498DB" stroke-width="2" rx="8"/>
  <text x="750" y="840" font-family="Arial, sans-serif" font-size="12" text-anchor="middle" fill="white">일정 편집 화면</text>
  <text x="750" y="853" font-family="Arial, sans-serif" font-size="12" text-anchor="middle" fill="white">(시간/장소 수정)</text>
  
  <!-- Location Information -->
  <rect x="250" y="900" width="120" height="50" fill="url(#screenGradient)" stroke="#3498DB" stroke-width="2" rx="8"/>
  <text x="310" y="920" font-family="Arial, sans-serif" font-size="12" text-anchor="middle" fill="white">장소 정보 확인</text>
  <text x="310" y="933" font-family="Arial, sans-serif" font-size="12" text-anchor="middle" fill="white">(영업시간/리뷰)</text>
  
  <!-- Route Optimization -->
  <rect x="830" y="900" width="120" height="50" fill="url(#processGradient)" stroke="#27AE60" stroke-width="2" rx="8"/>
  <text x="890" y="920" font-family="Arial, sans-serif" font-size="12" text-anchor="middle" fill="white">경로 최적화</text>
  <text x="890" y="933" font-family="Arial, sans-serif" font-size="12" text-anchor="middle" fill="white">(이동시간 계산)</text>
  
  <!-- Travel Execution Phase -->
  <rect x="650" y="1000" width="200" height="50" fill="#FFF3CD" stroke="#FFEAA7" stroke-width="2" rx="8"/>
  <text x="750" y="1020" font-family="Arial, sans-serif" font-size="14" font-weight="bold" text-anchor="middle" fill="#856404">여행 진행 단계</text>
  <text x="750" y="1035" font-family="Arial, sans-serif" font-size="12" text-anchor="middle" fill="#856404">(실시간 정보 확인 및 기록)</text>
  
  <!-- Real-time Processes -->
  <rect x="450" y="1080" width="120" height="50" fill="url(#screenGradient)" stroke="#3498DB" stroke-width="2" rx="8"/>
  <text x="510" y="1100" font-family="Arial, sans-serif" font-size="12" text-anchor="middle" fill="white">실시간 정보확인</text>
  <text x="510" y="1113" font-family="Arial, sans-serif" font-size="12" text-anchor="middle" fill="white">(영업시간/혼잡도)</text>
  
  <rect x="630" y="1080" width="120" height="50" fill="url(#screenGradient)" stroke="#3498DB" stroke-width="2" rx="8"/>
  <text x="690" y="1100" font-family="Arial, sans-serif" font-size="12" text-anchor="middle" fill="white">추억 기록</text>
  <text x="690" y="1113" font-family="Arial, sans-serif" font-size="12" text-anchor="middle" fill="white">(사진/메모 첨부)</text>
  
  <rect x="810" y="1080" width="120" height="50" fill="url(#screenGradient)" stroke="#3498DB" stroke-width="2" rx="8"/>
  <text x="870" y="1100" font-family="Arial, sans-serif" font-size="12" text-anchor="middle" fill="white">지도 연동</text>
  <text x="870" y="1113" font-family="Arial, sans-serif" font-size="12" text-anchor="middle" fill="white">(길찾기/주차장)</text>
  
  <!-- Multi-language Support -->
  <rect x="990" y="1080" width="120" height="50" fill="url(#processGradient)" stroke="#27AE60" stroke-width="2" rx="8"/>
  <text x="1050" y="1100" font-family="Arial, sans-serif" font-size="12" text-anchor="middle" fill="white">다국어 지원</text>
  <text x="1050" y="1113" font-family="Arial, sans-serif" font-size="12" text-anchor="middle" fill="white">(자동 번역)</text>
  
  <!-- Travel Completion -->
  <rect x="680" y="1200" width="140" height="50" fill="url(#screenGradient)" stroke="#3498DB" stroke-width="2" rx="8"/>
  <text x="750" y="1220" font-family="Arial, sans-serif" font-size="12" text-anchor="middle" fill="white">여행 완료</text>
  <text x="750" y="1233" font-family="Arial, sans-serif" font-size="12" text-anchor="middle" fill="white">(전체 기록 저장)</text>
  
  <!-- Data Sync Process -->
  <rect x="50" y="1300" width="120" height="80" fill="url(#processGradient)" stroke="#27AE60" stroke-width="2" rx="8"/>
  <text x="110" y="1320" font-family="Arial, sans-serif" font-size="12" text-anchor="middle" fill="white">마이크로서비스</text>
  <text x="110" y="1333" font-family="Arial, sans-serif" font-size="12" text-anchor="middle" fill="white">데이터 동기화</text>
  <text x="110" y="1346" font-family="Arial, sans-serif" font-size="12" text-anchor="middle" fill="white">(이벤트 기반)</text>
  <text x="110" y="1359" font-family="Arial, sans-serif" font-size="12" text-anchor="middle" fill="white">(실시간 업데이트)</text>
  
  <!-- End -->
  <ellipse cx="750" cy="1300" rx="60" ry="25" fill="#E74C3C" stroke="#C0392B" stroke-width="2"/>
  <text x="750" y="1308" font-family="Arial, sans-serif" font-size="14" font-weight="bold" text-anchor="middle" fill="white">종료</text>
  
  <!-- Flow Arrows -->
  <!-- Start to Login Decision -->
  <line x1="750" y1="225" x2="750" y2="260" stroke="#333" stroke-width="2" marker-end="url(#arrowhead)"/>
  
  <!-- Login Decision Branches -->
  <line x1="700" y1="300" x2="620" y2="300" stroke="#333" stroke-width="2" marker-end="url(#arrowhead)"/>
  <text x="650" y="295" font-family="Arial, sans-serif" font-size="10" fill="#E74C3C">아니오</text>
  
  <line x1="800" y1="300" x2="870" y2="300" stroke="#333" stroke-width="2" marker-end="url(#arrowhead)"/>
  <text x="830" y="295" font-family="Arial, sans-serif" font-size="10" fill="#27AE60">예</text>
  
  <!-- To Dashboard -->
  <line x1="560" y1="325" x2="560" y2="360" stroke="#333" stroke-width="2"/>
  <line x1="560" y1="360" x2="720" y2="360" stroke="#333" stroke-width="2"/>
  <line x1="720" y1="360" x2="720" y2="380" stroke="#333" stroke-width="2" marker-end="url(#arrowhead)"/>
  
  <line x1="940" y1="325" x2="940" y2="360" stroke="#333" stroke-width="2"/>
  <line x1="940" y1="360" x2="780" y2="360" stroke="#333" stroke-width="2"/>
  <line x1="780" y1="360" x2="780" y2="380" stroke="#333" stroke-width="2" marker-end="url(#arrowhead)"/>
  
  <!-- Dashboard to Action Decision -->
  <line x1="750" y1="430" x2="750" y2="470" stroke="#333" stroke-width="2" marker-end="url(#arrowhead)"/>
  
  <!-- Action Decision Branches -->
  <line x1="700" y1="510" x2="620" y2="510" stroke="#333" stroke-width="2"/>
  <line x1="620" y1="510" x2="520" y2="510" stroke="#333" stroke-width="2"/>
  <line x1="520" y1="510" x2="520" y2="570" stroke="#333" stroke-width="2" marker-end="url(#arrowhead)"/>
  <text x="600" y="505" font-family="Arial, sans-serif" font-size="10" fill="#27AE60">새 여행</text>
  
  <line x1="750" y1="540" x2="750" y2="570" stroke="#333" stroke-width="2" marker-end="url(#arrowhead)"/>
  <text x="760" y="555" font-family="Arial, sans-serif" font-size="10" fill="#27AE60">기존 여행</text>
  
  <!-- NEW: Location Search Path -->
  <line x1="800" y1="510" x2="880" y2="510" stroke="#333" stroke-width="2"/>
  <line x1="880" y1="510" x2="980" y2="510" stroke="#333" stroke-width="2"/>
  <line x1="980" y1="510" x2="980" y2="570" stroke="#333" stroke-width="2" marker-end="url(#arrowhead)"/>
  <text x="890" y="505" font-family="Arial, sans-serif" font-size="10" fill="#007bff">장소 찾기</text>
  
  <!-- Travel Setup Flow -->
  <line x1="520" y1="620" x2="520" y2="650" stroke="#333" stroke-width="2" marker-end="url(#arrowhead)"/>
  <line x1="520" y1="700" x2="520" y2="730" stroke="#333" stroke-width="2" marker-end="url(#arrowhead)"/>
  
  <!-- To Travel Detail -->
  <line x1="590" y1="755" x2="680" y2="755" stroke="#333" stroke-width="2" marker-end="url(#arrowhead)"/>
  <line x1="750" y1="620" x2="750" y2="730" stroke="#333" stroke-width="2" marker-end="url(#arrowhead)"/>
  
  <!-- NEW: Location Search Detailed Flow -->
  <line x1="1050" y1="595" x2="1150" y2="595" stroke="#333" stroke-width="2" marker-end="url(#arrowhead)"/>
  <line x1="1210" y1="620" x2="1210" y2="660" stroke="#333" stroke-width="2" marker-end="url(#arrowhead)"/>
  
  <!-- Search Type Branches -->
  <line x1="1160" y1="700" x2="1110" y2="700" stroke="#333" stroke-width="2"/>
  <line x1="1110" y1="700" x2="1110" y2="760" stroke="#333" stroke-width="2" marker-end="url(#arrowhead)"/>
  <text x="1120" y="695" font-family="Arial, sans-serif" font-size="10" fill="#27AE60">키워드</text>
  
  <line x1="1260" y1="700" x2="1340" y2="700" stroke="#333" stroke-width="2"/>
  <line x1="1340" y1="700" x2="1340" y2="760" stroke="#333" stroke-width="2" marker-end="url(#arrowhead)"/>
  <text x="1290" y="695" font-family="Arial, sans-serif" font-size="10" fill="#27AE60">카테고리</text>
  
  <!-- Location Search Process Flow -->
  <line x1="1110" y1="810" x2="1110" y2="830" stroke="#333" stroke-width="2"/>
  <line x1="1110" y1="830" x2="1170" y2="830" stroke="#333" stroke-width="2"/>
  <line x1="1170" y1="830" x2="1170" y2="840" stroke="#333" stroke-width="2" marker-end="url(#arrowhead)"/>
  
  <line x1="1340" y1="810" x2="1340" y2="830" stroke="#333" stroke-width="2"/>
  <line x1="1340" y1="830" x2="1250" y2="830" stroke="#333" stroke-width="2"/>
  <line x1="1250" y1="830" x2="1250" y2="840" stroke="#333" stroke-width="2" marker-end="url(#arrowhead)"/>
  
  <line x1="1210" y1="890" x2="1210" y2="920" stroke="#333" stroke-width="2" marker-end="url(#arrowhead)"/>
  <line x1="1210" y1="970" x2="1210" y2="1000" stroke="#333" stroke-width="2" marker-end="url(#arrowhead)"/>
  <line x1="1210" y1="1050" x2="1210" y2="1080" stroke="#333" stroke-width="2" marker-end="url(#arrowhead)"/>
  <line x1="1210" y1="1130" x2="1210" y2="1150" stroke="#333" stroke-width="2" marker-end="url(#arrowhead)"/>
  
  <!-- Location Detail Decision -->
  <line x1="1260" y1="1190" x2="1340" y2="1190" stroke="#333" stroke-width="2"/>
  <line x1="1340" y1="1190" x2="1340" y2="1250" stroke="#333" stroke-width="2" marker-end="url(#arrowhead)"/>
  <text x="1290" y="1185" font-family="Arial, sans-serif" font-size="10" fill="#27AE60">예</text>
  
  <line x1="1340" y1="1300" x2="1340" y2="1310" stroke="#333" stroke-width="2" marker-end="url(#arrowhead)"/>
  
  <!-- Add to Itinerary Decision -->
  <line x1="1290" y1="1350" x2="1100" y2="1350" stroke="#333" stroke-width="2"/>
  <line x1="1100" y1="1350" x2="1100" y2="840" stroke="#333" stroke-width="2"/>
  <line x1="1100" y1="840" x2="820" y2="840" stroke="#333" stroke-width="2" marker-end="url(#arrowhead)"/>
  <text x="1200" y="1345" font-family="Arial, sans-serif" font-size="10" fill="#27AE60">예</text>
  
  <!-- Main Schedule Flow -->
  <line x1="750" y1="780" x2="750" y2="810" stroke="#333" stroke-width="2"/>
  <line x1="680" y1="845" x2="590" y2="845" stroke="#333" stroke-width="2" marker-end="url(#arrowhead)"/>
  <line x1="520" y1="870" x2="520" y2="890" stroke="#333" stroke-width="2"/>
  <line x1="520" y1="890" x2="680" y2="890" stroke="#333" stroke-width="2"/>
  <line x1="680" y1="890" x2="680" y2="820" stroke="#333" stroke-width="2" marker-end="url(#arrowhead)"/>
  
  <!-- Location and Route Optimization -->
  <line x1="680" y1="845" x2="380" y2="845" stroke="#333" stroke-width="2"/>
  <line x1="380" y1="845" x2="380" y2="890" stroke="#333" stroke-width="2"/>
  <line x1="380" y1="890" x2="310" y2="890" stroke="#333" stroke-width="2"/>
  <line x1="310" y1="890" x2="310" y2="900" stroke="#333" stroke-width="2" marker-end="url(#arrowhead)"/>
  
  <line x1="820" y1="845" x2="890" y2="845" stroke="#333" stroke-width="2"/>
  <line x1="890" y1="845" x2="890" y2="900" stroke="#333" stroke-width="2" marker-end="url(#arrowhead)"/>
  
  <!-- To Travel Execution -->
  <line x1="750" y1="870" x2="750" y2="990" stroke="#333" stroke-width="2"/>
  <line x1="750" y1="990" x2="750" y2="1000" stroke="#333" stroke-width="2" marker-end="url(#arrowhead)"/>
  
  <!-- Travel Execution Branches -->
  <line x1="690" y1="1050" x2="510" y2="1050" stroke="#333" stroke-width="2"/>
  <line x1="510" y1="1050" x2="510" y2="1080" stroke="#333" stroke-width="2" marker-end="url(#arrowhead)"/>
  
  <line x1="720" y1="1050" x2="690" y2="1050" stroke="#333" stroke-width="2"/>
  <line x1="690" y1="1050" x2="690" y2="1080" stroke="#333" stroke-width="2" marker-end="url(#arrowhead)"/>
  
  <line x1="780" y1="1050" x2="870" y2="1050" stroke="#333" stroke-width="2"/>
  <line x1="870" y1="1050" x2="870" y2="1080" stroke="#333" stroke-width="2" marker-end="url(#arrowhead)"/>
  
  <line x1="810" y1="1050" x2="1050" y2="1050" stroke="#333" stroke-width="2"/>
  <line x1="1050" y1="1050" x2="1050" y2="1080" stroke="#333" stroke-width="2" marker-end="url(#arrowhead)"/>
  
  <!-- To Completion -->
  <line x1="510" y1="1130" x2="510" y2="1170" stroke="#333" stroke-width="2"/>
  <line x1="510" y1="1170" x2="720" y2="1170" stroke="#333" stroke-width="2"/>
  <line x1="720" y1="1170" x2="720" y2="1190" stroke="#333" stroke-width="2"/>
  <line x1="720" y1="1190" x2="750" y2="1190" stroke="#333" stroke-width="2"/>
  <line x1="750" y1="1190" x2="750" y2="1200" stroke="#333" stroke-width="2" marker-end="url(#arrowhead)"/>
  
  <line x1="690" y1="1130" x2="690" y2="1170" stroke="#333" stroke-width="2"/>
  <line x1="870" y1="1130" x2="870" y2="1170" stroke="#333" stroke-width="2"/>
  <line x1="870" y1="1170" x2="780" y2="1170" stroke="#333" stroke-width="2"/>
  <line x1="780" y1="1170" x2="780" y2="1190" stroke="#333" stroke-width="2"/>
  
  <line x1="1050" y1="1130" x2="1050" y2="1170" stroke="#333" stroke-width="2"/>
  <line x1="1050" y1="1170" x2="780" y2="1170" stroke="#333" stroke-width="2"/>
  
  <!-- To End -->
  <line x1="750" y1="1250" x2="750" y2="1275" stroke="#333" stroke-width="2" marker-end="url(#arrowhead)"/>
  
  <!-- Service Labels -->
  <text x="50" y="600" font-family="Arial, sans-serif" font-size="14" font-weight="bold" fill="#7B68EE" transform="rotate(-90 50,600)">프로파일 서비스</text>
  <text x="50" y="850" font-family="Arial, sans-serif" font-size="14" font-weight="bold" fill="#50C878" transform="rotate(-90 50,850)">일정 서비스</text>
  <text x="50" y="1000" font-family="Arial, sans-serif" font-size="14" font-weight="bold" fill="#FF6B6B" transform="rotate(-90 50,1000)">장소 서비스</text>
  
  <!-- NEW: Location Service Extension Label -->
  <text x="1450" y="800" font-family="Arial, sans-serif" font-size="14" font-weight="bold" fill="#FF6B6B" transform="rotate(-90 1450,800)">특정 장소 찾기</text>
  
</svg>